# xmcd
#
# Track frame offsets:
#	150
#	20528
#	48168
#	66032
#	86080
#	99798
#	115701
#	126520
#	139627
#	161269
#	179409
#	198630
#	210606
#
# Disc length: 3050 seconds
#
# Revision: 1
# Processed by: cddbd v1.5.2PL0 Copyright (c) Steve Scherf et al.
# Submitted via: audiograbber 1.83.01
#
DISCID=ad0be80d
DTITLE=The Rye Brothers - Ryagra
DYEAR=1900
DGENRE=
TTITLE0=The Devil Went Down To Georgia
TTITLE1=Lyin' Eyes
TTITLE2=She's Over You
TTITLE3=Mexican Girl
TTITLE4=King Of The Road
TTITLE5=If Tomorrow Never Comes
TTITLE6=Duelling Banjos
TTITLE7=Grandma's Feather Bed
TTITLE8=Field Of Athenry
TTITLE9=A Little Bit More
TTITLE10=Cotton Eyed Joe
TTITLE11=Louisiana Saturday Night
TTITLE12=Hooked On Country
EXTD=
EXTT0=
EXTT1=
EXTT2=
EXTT3=
EXTT4=
EXTT5=
EXTT6=
EXTT7=
EXTT8=
EXTT9=
EXTT10=
EXTT11=
EXTT12=
PLAYORDER=
